<svg viewBox="0 0 390 580" xmlns="http://www.w3.org/2000/svg" font-family="'Segoe UI',system-ui,sans-serif">
  <defs>
    <linearGradient id="bg" x1="0%" y1="0%" x2="100%" y2="100%"><stop offset="0%" style="stop-color:#2D3A52"/><stop offset="100%" style="stop-color:#1a2540"/></linearGradient>
    <linearGradient id="pur" x1="0%" y1="0%" x2="100%" y2="100%"><stop offset="0%" style="stop-color:#9B6FD4"/><stop offset="100%" style="stop-color:#7B4FB4"/></linearGradient>
    <linearGradient id="bs" x1="0%" y1="0%" x2="100%" y2="0%"><stop offset="0%" style="stop-color:#4CAF82"/><stop offset="100%" style="stop-color:#34D382"/></linearGradient>
    <linearGradient id="bw" x1="0%" y1="0%" x2="100%" y2="0%"><stop offset="0%" style="stop-color:#F59E0B"/><stop offset="100%" style="stop-color:#FCD34D"/></linearGradient>
    <linearGradient id="bo" x1="0%" y1="0%" x2="100%" y2="0%"><stop offset="0%" style="stop-color:#E05252"/><stop offset="100%" style="stop-color:#F87171"/></linearGradient>
    <filter id="sh"><feGaussianBlur in="SourceAlpha" stdDeviation="10"/><feOffset dx="0" dy="6"/><feComponentTransfer><feFuncA type="linear" slope="0.35"/></feComponentTransfer><feMerge><feMergeNode/><feMergeNode in="SourceGraphic"/></feMerge></filter>
    <clipPath id="pc"><rect x="95" y="60" width="200" height="370" rx="28"/></clipPath>
  </defs>
  <rect width="390" height="580" fill="url(#bg)"/>
  <circle cx="50" cy="150" r="80" fill="#9B6FD4" opacity="0.08"/>
  <circle cx="340" cy="380" r="70" fill="#F59E0B" opacity="0.06"/>
  <rect x="95" y="60" width="200" height="370" rx="28" fill="#1E2D40" filter="url(#sh)"/>
  <rect x="95" y="60" width="200" height="370" rx="28" fill="none" stroke="#3a4a65" stroke-width="1.5"/>
  <rect x="95" y="60" width="200" height="370" rx="28" fill="#2D4060" clip-path="url(#pc)"/>
  <rect x="168" y="72" width="54" height="11" rx="5.5" fill="#1a2d35"/>
  <text x="115" y="102" font-size="16" font-weight="800" fill="#FFFFFF">Mes Budgets</text>
  <text x="115" y="115" font-size="7.5" fill="rgba(255,255,255,0.4)">3 Actifs · 3 Total</text>
  <rect x="109" y="122" width="172" height="70" rx="14" fill="rgba(255,255,255,0.07)"/>
  <text x="118" y="134" font-size="7.5" fill="rgba(255,255,255,0.5)">Reste Total</text>
  <text x="118" y="153" font-size="18" font-weight="800" fill="#FFFFFF">$3,503</text>
  <rect x="218" y="130" width="52" height="16" rx="8" fill="#E05252" opacity="0.9"/>
  <text x="244" y="142" font-size="7" fill="#FFFFFF" text-anchor="middle" font-weight="700">Dépassé</text>
  <rect x="118" y="160" width="154" height="4" rx="2" fill="rgba(255,255,255,0.1)"/>
  <rect x="118" y="160" width="154" height="4" rx="2" fill="url(#bo)" opacity="0.9"/>
  <rect x="109" y="200" width="172" height="70" rx="14" fill="rgba(255,255,255,0.08)" stroke="rgba(155,111,212,0.3)" stroke-width="1"/>
  <rect x="115" y="208" width="22" height="22" rx="8" fill="url(#pur)"/>
  <text x="126" y="222" font-size="11" text-anchor="middle">🎭</text>
  <text x="143" y="218" font-size="8" font-weight="700" fill="#FFFFFF">Divertissement</text>
  <rect x="220" y="210" width="48" height="13" rx="6.5" fill="rgba(155,111,212,0.25)"/>
  <text x="244" y="220" font-size="6.5" fill="#9B6FD4" text-anchor="middle" font-weight="700">MENSUEL</text>
  <text x="115" y="248" font-size="7" fill="rgba(255,255,255,0.5)">Dépensé: $0</text>
  <text x="220" y="248" font-size="7" fill="#9B6FD4">Reste: $545</text>
  <rect x="115" y="254" width="156" height="4" rx="2" fill="rgba(155,111,212,0.2)"/>
  <rect x="109" y="278" width="172" height="58" rx="14" fill="rgba(255,255,255,0.06)" stroke="rgba(76,175,130,0.2)" stroke-width="1"/>
  <rect x="115" y="286" width="22" height="22" rx="8" fill="rgba(76,175,130,0.3)"/>
  <text x="126" y="300" font-size="11" text-anchor="middle">🍕</text>
  <text x="143" y="296" font-size="8" font-weight="700" fill="#FFFFFF">Alimentation</text>
  <rect x="115" y="308" width="156" height="4" rx="2" fill="rgba(255,255,255,0.1)"/>
  <rect x="115" y="308" width="110" height="4" rx="2" fill="url(#bs)"/>
  <text x="115" y="322" font-size="6.5" fill="rgba(255,255,255,0.4)">$710 / $1,000</text>
  <rect x="109" y="344" width="172" height="58" rx="14" fill="rgba(255,255,255,0.06)" stroke="rgba(245,158,11,0.2)" stroke-width="1"/>
  <rect x="115" y="352" width="22" height="22" rx="8" fill="rgba(245,158,11,0.3)"/>
  <text x="126" y="366" font-size="11" text-anchor="middle">🚗</text>
  <text x="143" y="362" font-size="8" font-weight="700" fill="#FFFFFF">Transport</text>
  <rect x="115" y="374" width="156" height="4" rx="2" fill="rgba(255,255,255,0.1)"/>
  <rect x="115" y="374" width="132" height="4" rx="2" fill="url(#bw)"/>
  <text x="265" y="388" font-size="6.5" fill="#F59E0B" text-anchor="end">88% ⚠️</text>
  <line x1="109" y1="410" x2="281" y2="410" stroke="rgba(255,255,255,0.08)" stroke-width="0.8"/>
  <text x="128" y="424" font-size="7.5" text-anchor="middle" fill="rgba(255,255,255,0.4)">🏠 Accueil</text>
  <text x="195" y="424" font-size="7.5" text-anchor="middle" fill="rgba(255,255,255,0.9)" font-weight="700">💼 Budgets</text>
  <text x="262" y="424" font-size="7.5" text-anchor="middle" fill="rgba(255,255,255,0.4)">👤 Profil</text>
  <g transform="translate(8, 240)" filter="url(#sh)">
    <rect width="80" height="58" rx="14" fill="#E05252"/>
    <text x="40" y="18" font-size="7" fill="rgba(255,255,255,0.8)" text-anchor="middle">⚠️ Dépassé</text>
    <text x="40" y="34" font-size="11" font-weight="800" fill="#FFFFFF" text-anchor="middle">Factures</text>
    <text x="40" y="48" font-size="7" fill="rgba(255,255,255,0.75)" text-anchor="middle">$12 reste!</text>
  </g>
 </svg>
