<svg viewBox="0 0 390 580" xmlns="http://www.w3.org/2000/svg" font-family="'Segoe UI','Noto Sans Arabic',system-ui,sans-serif">
  <defs>
    <linearGradient id="bg" x1="0%" y1="0%" x2="100%" y2="100%"><stop offset="0%" style="stop-color:#1a2f3a"/><stop offset="100%" style="stop-color:#0d1e28"/></linearGradient>
    <linearGradient id="gf" x1="0%" y1="0%" x2="0%" y2="100%"><stop offset="0%" style="stop-color:#4CAF82;stop-opacity:0.4"/><stop offset="100%" style="stop-color:#4CAF82;stop-opacity:0"/></linearGradient>
    <linearGradient id="rf" x1="0%" y1="0%" x2="0%" y2="100%"><stop offset="0%" style="stop-color:#E05252;stop-opacity:0.3"/><stop offset="100%" style="stop-color:#E05252;stop-opacity:0"/></linearGradient>
    <linearGradient id="th1" x1="0%" y1="0%" x2="100%" y2="100%"><stop offset="0%" style="stop-color:#2D4A52"/><stop offset="100%" style="stop-color:#1a3340"/></linearGradient>
    <linearGradient id="th3" x1="0%" y1="0%" x2="100%" y2="100%"><stop offset="0%" style="stop-color:#2D2D52"/><stop offset="100%" style="stop-color:#1a1a40"/></linearGradient>
    <linearGradient id="th6" x1="0%" y1="0%" x2="100%" y2="100%"><stop offset="0%" style="stop-color:#f8fafc"/><stop offset="100%" style="stop-color:#e2e8f0"/></linearGradient>
    <filter id="sh"><feGaussianBlur in="SourceAlpha" stdDeviation="8"/><feOffset dx="0" dy="5"/><feComponentTransfer><feFuncA type="linear" slope="0.3"/></feComponentTransfer><feMerge><feMergeNode/><feMergeNode in="SourceGraphic"/></feMerge></filter>
    <clipPath id="pc"><rect x="100" y="58" width="190" height="310" rx="26"/></clipPath>
  </defs>
  <rect width="390" height="580" fill="url(#bg)"/>
  <circle cx="330" cy="150" r="100" fill="#4CAF82" opacity="0.06"/>
  <circle cx="50" cy="100" r="80" fill="#9B6FD4" opacity="0.07"/>
  <circle cx="70" cy="400" r="90" fill="#3AAFA9" opacity="0.06"/>
  <rect x="100" y="58" width="190" height="310" rx="26" fill="#0d1e28" filter="url(#sh)"/>
  <rect x="100" y="58" width="190" height="310" rx="26" fill="none" stroke="#2a4050" stroke-width="1.5"/>
  <rect x="100" y="58" width="190" height="310" rx="26" fill="#1a2f3a" clip-path="url(#pc)"/>
  <rect x="170" y="69" width="50" height="10" rx="5" fill="#0d1e28"/>
  <text x="274" y="98" font-size="13" font-weight="800" fill="#FFFFFF" text-anchor="end">التحليلات</text>
  <text x="274" y="110" font-size="6.5" fill="rgba(255,255,255,0.4)" text-anchor="end">14 معاملة في هذه الفترة</text>
  <rect x="110" y="116" width="170" height="46" rx="12" fill="rgba(255,255,255,0.06)"/>
  <text x="272" y="130" font-size="6.5" fill="rgba(255,255,255,0.45)" text-anchor="end">صافي الرصيد</text>
  <text x="272" y="147" font-size="16" font-weight="800" fill="#FFFFFF" text-anchor="end">+$10,699</text>
  <rect x="116" y="120" width="46" height="14" rx="7" fill="rgba(76,175,130,0.25)"/>
  <text x="139" y="130" font-size="6" fill="#4CAF82" text-anchor="middle" font-weight="700">↗ فائض</text>
  <rect x="110" y="168" width="170" height="14" rx="7" fill="rgba(255,255,255,0.04)"/>
  <rect x="248" y="170" width="30" height="10" rx="5" fill="rgba(255,255,255,0.06)"/>
  <text x="263" y="178" font-size="5.5" fill="rgba(255,255,255,0.4)" text-anchor="middle">أسبوع</text>
  <rect x="212" y="170" width="32" height="10" rx="5" fill="#2D4A52"/>
  <text x="228" y="178" font-size="5.5" fill="#FFFFFF" text-anchor="middle" font-weight="700">الشهر</text>
  <rect x="110" y="187" width="170" height="88" rx="12" fill="rgba(255,255,255,0.05)"/>
  <text x="272" y="200" font-size="7" font-weight="700" fill="#FFFFFF" text-anchor="end">نظرة مالية عامة</text>
  <path d="M 116,255 L 130,244 L 146,250 L 162,228 L 178,234 L 194,222 L 210,218 L 226,222 L 268,214 L 268,268 L 116,268 Z" fill="url(#gf)" clip-path="url(#pc)"/>
  <path d="M 116,260 L 130,250 L 146,256 L 162,244 L 178,248 L 194,238 L 210,240 L 226,236 L 268,230 L 268,268 L 116,268 Z" fill="url(#rf)" clip-path="url(#pc)"/>
  <path d="M 116,255 L 130,244 L 146,250 L 162,228 L 178,234 L 194,222 L 210,218 L 226,222 L 268,214" fill="none" stroke="#4CAF82" stroke-width="1.8" stroke-linecap="round" stroke-linejoin="round" clip-path="url(#pc)"/>
  <path d="M 116,260 L 130,250 L 146,256 L 162,244 L 178,248 L 194,238 L 210,240 L 226,236 L 268,230" fill="none" stroke="#E05252" stroke-width="1.8" stroke-linecap="round" stroke-linejoin="round" clip-path="url(#pc)"/>
  <circle cx="268" cy="214" r="3.5" fill="#4CAF82"/><circle cx="268" cy="214" r="1.5" fill="#FFFFFF"/>
  <circle cx="118" cy="207" r="2.5" fill="#4CAF82"/><text x="123" y="210" font-size="5.5" fill="rgba(255,255,255,0.45)">الدخل</text>
  <circle cx="148" cy="207" r="2.5" fill="#E05252"/><text x="153" y="210" font-size="5.5" fill="rgba(255,255,255,0.45)">المصروف</text>
  <rect x="110" y="281" width="170" height="36" rx="10" fill="rgba(255,255,255,0.06)" stroke="rgba(255,255,255,0.07)" stroke-width="0.8"/>
  <text x="272" y="293" font-size="6.5" fill="rgba(255,255,255,0.5)" text-anchor="end">🎨  اختر الثيم</text>
  <circle cx="218" cy="308" r="7" fill="url(#th1)" stroke="rgba(255,255,255,0.4)" stroke-width="1.2"/>
  <text x="218" y="312" font-size="7" fill="#FFFFFF" text-anchor="middle" font-weight="800">✓</text>
  <circle cx="202" cy="308" r="7" fill="#22C55E" stroke="rgba(255,255,255,0.2)" stroke-width="0.8"/>
  <circle cx="186" cy="308" r="7" fill="#8B5CF6" stroke="rgba(255,255,255,0.2)" stroke-width="0.8"/>
  <circle cx="170" cy="308" r="7" fill="#F59E0B" stroke="rgba(255,255,255,0.2)" stroke-width="0.8"/>
  <circle cx="154" cy="308" r="7" fill="#EC4899" stroke="rgba(255,255,255,0.2)" stroke-width="0.8"/>
  <circle cx="138" cy="308" r="7" fill="#EF4444" stroke="rgba(255,255,255,0.2)" stroke-width="0.8"/>
  <rect x="112" y="301" width="18" height="14" rx="7" fill="rgba(255,255,255,0.08)" stroke="rgba(255,255,255,0.15)" stroke-width="0.8"/>
  <circle cx="126" cy="308" r="5" fill="#2D4A52" stroke="rgba(255,255,255,0.3)" stroke-width="0.8"/>
  <rect x="100" y="348" width="190" height="1" fill="rgba(255,255,255,0.07)"/>
  <text x="268" y="364" font-size="6.5" text-anchor="middle" fill="rgba(255,255,255,0.4)">🏠</text>
  <text x="237" y="364" font-size="6.5" text-anchor="middle" fill="rgba(255,255,255,0.4)">💼</text>
  <text x="195" y="364" font-size="6.5" text-anchor="middle" fill="rgba(255,255,255,0.4)">↺</text>
  <text x="153" y="364" font-size="6.5" text-anchor="middle" fill="rgba(255,255,255,0.9)">📊</text>
  <text x="122" y="364" font-size="6.5" text-anchor="middle" fill="rgba(255,255,255,0.4)">👤</text>
  <g transform="translate(298, 155)" filter="url(#sh)">
    <rect width="84" height="72" rx="18" fill="#4CAF82"/>
    <text x="42" y="20" font-size="7.5" fill="rgba(255,255,255,0.75)" text-anchor="middle" font-weight="600">معدل الادخار</text>
    <text x="42" y="44" font-size="26" font-weight="900" fill="#FFFFFF" text-anchor="middle">38%</text>
    <text x="42" y="60" font-size="7" fill="rgba(255,255,255,0.8)" text-anchor="middle">↑ +5% الشهر الماضي</text>
  </g>
  <g transform="translate(8, 120)">
    <rect width="82" height="52" rx="14" fill="url(#th1)" filter="url(#sh)"/>
    <rect x="0" y="0" width="82" height="52" rx="14" fill="none" stroke="#4CAF82" stroke-width="1.5"/>
    <rect x="6" y="6" width="70" height="14" rx="5" fill="rgba(76,175,130,0.5)"/>
    <text x="41" y="16" font-size="6" fill="#FFFFFF" text-anchor="middle" font-weight="700">فيروزي داكن ✓</text>
    <rect x="6" y="24" width="40" height="6" rx="3" fill="rgba(255,255,255,0.15)"/>
    <rect x="6" y="34" width="28" height="6" rx="3" fill="rgba(255,255,255,0.1)"/>
  </g>
  <g transform="translate(8, 182)">
    <rect width="82" height="52" rx="14" fill="url(#th3)" filter="url(#sh)"/>
    <rect x="6" y="6" width="70" height="14" rx="5" fill="rgba(155,111,212,0.6)"/>
    <text x="41" y="16" font-size="6" fill="#FFFFFF" text-anchor="middle" font-weight="700">بنفسجي داكن</text>
    <rect x="6" y="24" width="40" height="6" rx="3" fill="rgba(255,255,255,0.12)"/>
  </g>
  <g transform="translate(8, 244)">
    <rect width="82" height="52" rx="14" fill="url(#th6)" filter="url(#sh)"/>
    <rect x="6" y="6" width="70" height="14" rx="5" fill="rgba(99,102,241,0.7)"/>
    <text x="41" y="16" font-size="6" fill="#FFFFFF" text-anchor="middle" font-weight="700">الوضع الفاتح</text>
    <rect x="6" y="24" width="40" height="6" rx="3" fill="rgba(0,0,0,0.08)"/>
  </g>
  <rect x="8" y="304" width="82" height="26" rx="13" fill="rgba(155,111,212,0.15)" stroke="rgba(155,111,212,0.35)" stroke-width="1"/>
  <text x="49" y="321" font-size="7.5" fill="#9B6FD4" text-anchor="middle" font-weight="700">+ 3 ثيمات أخرى</text>
  <g transform="translate(298, 295)" filter="url(#sh)">
    <rect width="84" height="84" rx="18" fill="#1E293B" stroke="rgba(255,255,255,0.08)" stroke-width="1"/>
    <circle cx="42" cy="28" r="18" fill="rgba(76,175,130,0.2)" stroke="#4CAF82" stroke-width="1.5"/>
    <text x="42" y="33" font-size="18" text-anchor="middle">👤</text>
    <rect x="8" y="52" width="68" height="24" rx="8" fill="rgba(255,255,255,0.06)"/>
    <text x="27" y="62" font-size="5.5" fill="rgba(255,255,255,0.45)" text-anchor="middle">معاملة</text>
    <text x="27" y="71" font-size="7" font-weight="800" fill="#FFFFFF" text-anchor="middle">128</text>
    <line x1="48" y1="54" x2="48" y2="74" stroke="rgba(255,255,255,0.1)" stroke-width="0.8"/>
    <text x="66" y="62" font-size="5.5" fill="rgba(255,255,255,0.45)" text-anchor="middle">ميزانية</text>
    <text x="66" y="71" font-size="7" font-weight="800" fill="#FFFFFF" text-anchor="middle">5</text>
  </g>
  </svg>
